<svg width="259" height="259" viewBox="0 0 259 259" fill="none" xmlns="http://www.w3.org/2000/svg">
<rect x="1.5" y="1.5" width="256" height="256" stroke="white" stroke-width="3"/>
<path d="M56 156V258" stroke="white" stroke-width="3"/>
<path d="M81 182V258" stroke="white" stroke-width="3"/>
<path d="M105 193V258" stroke="white" stroke-width="3"/>
<path d="M130 196V257" stroke="white" stroke-width="3"/>
<path d="M155 192.5V257" stroke="white" stroke-width="3"/>
<path d="M179 179.5V257" stroke="white" stroke-width="3"/>
<path d="M202 155V257" stroke="white" stroke-width="3"/>
<path d="M129 111C96.1265 111 67.7079 128.391 54.4345 153.685L54 154.5L54.4345 155.26C67.6991 180.572 96.111 198 129 198C161.889 198 190.303 180.573 203.566 155.264L204 154.502L203.566 153.687C190.294 128.396 161.874 111.002 129 111.002V111ZM129 114.48C160.297 114.48 187.228 130.867 200.034 154.501C187.228 178.128 160.294 194.518 129 194.518C97.7046 194.518 70.7722 178.128 57.9665 154.501C70.7707 130.869 97.7021 114.48 129 114.48Z" fill="white"/>
<path d="M2.42286 257.5L129.005 3.35411L256.569 257.5H2.42286Z" stroke="white" stroke-width="3"/>
<circle cx="129" cy="155" r="29.2035" stroke="white" stroke-width="1.59292"/>
<path d="M126.462 142.455C126.838 142.455 127.103 142.543 127.258 142.72C127.424 142.886 127.507 143.174 127.507 143.583V147.964C127.507 148.351 127.413 148.627 127.225 148.793C127.037 148.959 126.716 149.042 126.262 149.042C125.809 149.042 125.488 148.959 125.3 148.793C125.112 148.627 125.018 148.351 125.018 147.964V144.711H116.141V151.199H120.355V149.689C120.355 149.302 120.438 149.025 120.604 148.86C120.781 148.694 121.091 148.611 121.533 148.611C121.976 148.611 122.28 148.694 122.446 148.86C122.623 149.025 122.712 149.302 122.712 149.689V154.966C122.712 155.353 122.623 155.629 122.446 155.795C122.28 155.961 121.976 156.044 121.533 156.044C121.091 156.044 120.781 155.961 120.604 155.795C120.438 155.629 120.355 155.353 120.355 154.966V153.456H116.141V159.894H119.99C120.366 159.894 120.632 159.982 120.787 160.159C120.953 160.325 121.036 160.613 121.036 161.022C121.036 161.431 120.953 161.725 120.787 161.902C120.632 162.067 120.366 162.15 119.99 162.15H111.462C111.085 162.15 110.814 162.067 110.649 161.902C110.494 161.725 110.416 161.431 110.416 161.022C110.416 160.613 110.494 160.325 110.649 160.159C110.814 159.982 111.085 159.894 111.462 159.894H113.652V144.711H111.462C111.085 144.711 110.814 144.628 110.649 144.462C110.494 144.285 110.416 143.992 110.416 143.583C110.416 143.174 110.494 142.886 110.649 142.72C110.814 142.543 111.085 142.455 111.462 142.455H126.462ZM138.443 146.454C140.047 146.454 141.413 146.78 142.541 147.433C143.681 148.074 144.555 148.97 145.163 150.121C145.772 151.26 146.12 152.576 146.208 154.07C146.208 154.446 146.126 154.711 145.96 154.866C145.805 155.021 145.539 155.098 145.163 155.098H133.15C133.227 156.747 133.714 157.997 134.61 158.848C135.517 159.689 136.795 160.11 138.443 160.11C139.461 160.11 140.467 159.982 141.463 159.728C142.458 159.462 143.332 159.114 144.085 158.683C144.273 158.583 144.444 158.533 144.599 158.533C144.986 158.533 145.301 158.826 145.545 159.413C145.644 159.645 145.694 159.855 145.694 160.043C145.694 160.486 145.451 160.829 144.964 161.072C144.112 161.503 143.106 161.852 141.944 162.117C140.783 162.383 139.616 162.515 138.443 162.515C136.773 162.515 135.346 162.195 134.162 161.553C132.978 160.912 132.077 159.988 131.457 158.782C130.838 157.576 130.528 156.144 130.528 154.485C130.528 152.903 130.866 151.503 131.54 150.287C132.215 149.07 133.15 148.129 134.345 147.466C135.539 146.791 136.905 146.454 138.443 146.454ZM138.443 148.86C137.082 148.86 135.954 149.208 135.058 149.905C134.173 150.591 133.592 151.548 133.316 152.775H143.454C143.222 151.503 142.685 150.535 141.845 149.872C141.015 149.197 139.881 148.86 138.443 148.86Z" fill="white"/>
<path d="M125.371 129.917C125.771 129.917 126.122 129.989 126.423 130.135C126.727 130.276 126.962 130.484 127.128 130.757C127.294 131.03 127.377 131.355 127.377 131.732C127.377 132.084 127.289 132.409 127.113 132.707C126.94 133 126.669 133.336 126.299 133.712L124.556 135.481H126.807V134.827C126.807 134.706 126.836 134.62 126.895 134.568C126.954 134.516 127.054 134.49 127.196 134.49C127.337 134.49 127.438 134.516 127.496 134.568C127.555 134.62 127.585 134.706 127.585 134.827V135.833C127.585 135.961 127.559 136.053 127.507 136.108C127.458 136.16 127.375 136.186 127.258 136.186H123.659C123.542 136.186 123.457 136.16 123.405 136.108C123.357 136.053 123.333 135.961 123.333 135.833C123.333 135.702 123.359 135.609 123.41 135.553L125.692 133.241C126.01 132.916 126.233 132.646 126.361 132.432C126.492 132.214 126.558 131.981 126.558 131.732C126.558 131.41 126.454 131.156 126.247 130.969C126.043 130.779 125.752 130.684 125.376 130.684C124.995 130.684 124.638 130.781 124.302 130.975V131.545C124.302 131.666 124.273 131.752 124.214 131.804C124.155 131.856 124.055 131.882 123.913 131.882C123.772 131.882 123.671 131.856 123.613 131.804C123.554 131.752 123.525 131.666 123.525 131.545V130.783C123.525 130.648 123.564 130.553 123.644 130.498C123.896 130.314 124.169 130.173 124.463 130.072C124.757 129.969 125.059 129.917 125.371 129.917ZM133.061 129.917C133.154 129.913 133.227 129.944 133.278 130.01C133.334 130.076 133.361 130.197 133.361 130.373C133.361 130.48 133.344 130.558 133.31 130.606C133.278 130.651 133.232 130.676 133.17 130.679C132.25 130.727 131.543 130.966 131.049 131.395C130.554 131.82 130.259 132.399 130.162 133.132C130.342 132.897 130.563 132.715 130.826 132.587C131.089 132.459 131.369 132.395 131.666 132.395C132.046 132.395 132.388 132.477 132.693 132.639C133 132.802 133.24 133.031 133.413 133.329C133.59 133.626 133.678 133.968 133.678 134.355C133.678 134.729 133.59 135.064 133.413 135.361C133.237 135.655 132.986 135.885 132.661 136.051C132.34 136.217 131.97 136.3 131.552 136.3C131.175 136.3 130.828 136.214 130.51 136.041C130.195 135.868 129.941 135.617 129.747 135.289C129.481 134.832 129.348 134.247 129.348 133.531C129.348 132.933 129.474 132.368 129.727 131.835C129.982 131.303 130.387 130.861 130.94 130.508C131.496 130.152 132.203 129.955 133.061 129.917ZM131.552 133.163C131.299 133.163 131.073 133.211 130.873 133.308C130.672 133.401 130.515 133.533 130.401 133.702C130.29 133.868 130.235 134.06 130.235 134.278C130.235 134.52 130.288 134.736 130.395 134.926C130.506 135.116 130.66 135.265 130.857 135.372C131.057 135.479 131.289 135.533 131.552 135.533C131.815 135.533 132.044 135.484 132.241 135.387C132.438 135.291 132.591 135.154 132.698 134.978C132.805 134.798 132.858 134.591 132.858 134.355C132.858 134.117 132.805 133.908 132.698 133.728C132.594 133.548 132.444 133.41 132.247 133.313C132.053 133.213 131.821 133.163 131.552 133.163Z" fill="white"/>
<path d="M122.891 173.04C123.434 173.04 123.911 173.164 124.323 173.413C124.734 173.659 125.052 174.015 125.277 174.481C125.505 174.944 125.619 175.491 125.619 176.12C125.619 176.749 125.505 177.295 125.277 177.758C125.052 178.222 124.734 178.578 124.323 178.827C123.911 179.072 123.434 179.195 122.891 179.195H120.449C120.332 179.195 120.247 179.169 120.195 179.117C120.147 179.062 120.123 178.97 120.123 178.842C120.123 178.714 120.147 178.624 120.195 178.572C120.247 178.517 120.332 178.489 120.449 178.489H121.03V173.745H120.449C120.332 173.745 120.247 173.719 120.195 173.667C120.147 173.612 120.123 173.52 120.123 173.392C120.123 173.264 120.147 173.175 120.195 173.123C120.247 173.067 120.332 173.04 120.449 173.04H122.891ZM121.808 178.489H122.772C123.184 178.489 123.541 178.4 123.846 178.22C124.15 178.037 124.385 177.769 124.551 177.416C124.717 177.06 124.8 176.628 124.8 176.12C124.8 175.612 124.717 175.181 124.551 174.829C124.385 174.473 124.15 174.203 123.846 174.02C123.541 173.837 123.184 173.745 122.772 173.745H121.808V178.489ZM130.965 176.965C131.107 176.965 131.207 176.991 131.266 177.043C131.325 177.095 131.354 177.181 131.354 177.302V178.842C131.354 178.97 131.328 179.062 131.276 179.117C131.228 179.169 131.145 179.195 131.028 179.195H126.392C126.274 179.195 126.19 179.169 126.138 179.117C126.089 179.062 126.065 178.97 126.065 178.842C126.065 178.714 126.089 178.624 126.138 178.572C126.19 178.517 126.274 178.489 126.392 178.489H126.921V173.745H126.392C126.274 173.745 126.19 173.719 126.138 173.667C126.089 173.612 126.065 173.52 126.065 173.392C126.065 173.264 126.089 173.175 126.138 173.123C126.19 173.067 126.274 173.04 126.392 173.04H130.924C131.041 173.04 131.124 173.067 131.173 173.123C131.225 173.175 131.251 173.264 131.251 173.392V174.709C131.251 174.83 131.221 174.917 131.162 174.969C131.104 175.021 131.003 175.046 130.862 175.046C130.72 175.046 130.62 175.021 130.561 174.969C130.502 174.917 130.473 174.83 130.473 174.709V173.745H127.699V175.669H129.036V175.197C129.036 175.076 129.062 174.989 129.114 174.938C129.17 174.886 129.266 174.86 129.405 174.86C129.543 174.86 129.638 174.886 129.69 174.938C129.745 174.989 129.773 175.076 129.773 175.197V176.846C129.773 176.967 129.745 177.053 129.69 177.105C129.638 177.157 129.543 177.183 129.405 177.183C129.266 177.183 129.17 177.157 129.114 177.105C129.062 177.053 129.036 176.967 129.036 176.846V176.374H127.699V178.489H130.576V177.302C130.576 177.181 130.606 177.095 130.665 177.043C130.723 176.991 130.824 176.965 130.965 176.965ZM137.219 173.04C137.337 173.04 137.42 173.067 137.468 173.123C137.52 173.175 137.546 173.264 137.546 173.392C137.546 173.52 137.52 173.612 137.468 173.667C137.42 173.719 137.337 173.745 137.219 173.745H136.882L135.28 175.995L137.074 178.489H137.375C137.492 178.489 137.575 178.517 137.624 178.572C137.676 178.624 137.701 178.714 137.701 178.842C137.701 178.97 137.676 179.062 137.624 179.117C137.575 179.169 137.492 179.195 137.375 179.195H135.539C135.422 179.195 135.337 179.169 135.285 179.117C135.237 179.062 135.213 178.97 135.213 178.842C135.213 178.714 135.237 178.624 135.285 178.572C135.337 178.517 135.422 178.489 135.539 178.489H136.104L134.782 176.597L133.429 178.489H133.859C133.977 178.489 134.06 178.517 134.108 178.572C134.16 178.624 134.186 178.714 134.186 178.842C134.186 178.97 134.16 179.062 134.108 179.117C134.06 179.169 133.977 179.195 133.859 179.195H132.179C132.062 179.195 131.977 179.169 131.925 179.117C131.877 179.062 131.852 178.97 131.852 178.842C131.852 178.714 131.877 178.624 131.925 178.572C131.977 178.517 132.062 178.489 132.179 178.489H132.501L134.31 175.985L132.692 173.745H132.335C132.217 173.745 132.132 173.719 132.081 173.667C132.032 173.612 132.008 173.52 132.008 173.392C132.008 173.264 132.032 173.175 132.081 173.123C132.132 173.067 132.217 173.04 132.335 173.04H134.118C134.236 173.04 134.319 173.067 134.367 173.123C134.419 173.175 134.445 173.264 134.445 173.392C134.445 173.52 134.419 173.612 134.367 173.667C134.319 173.719 134.236 173.745 134.118 173.745H133.657L134.803 175.383L135.954 173.745H135.643C135.525 173.745 135.441 173.719 135.389 173.667C135.34 173.612 135.316 173.52 135.316 173.392C135.316 173.264 135.34 173.175 135.389 173.123C135.441 173.067 135.525 173.04 135.643 173.04H137.219Z" fill="white"/>
</svg>
