<svg width="256" height="199" viewBox="0 0 256 199" fill="none" xmlns="http://www.w3.org/2000/svg">
<path d="M216.856 16.5966C200.285 8.8433 182.566 3.2085 164.042 0C161.767 4.1132 159.109 9.6455 157.276 14.0464C137.584 11.085 118.073 11.085 98.743 14.0464C96.9108 9.6455 94.1926 4.1132 91.8972 0C73.3526 3.2085 55.6134 8.864 39.0421 16.6377C5.61752 67.1465 -3.44332 116.401 1.08711 164.956C23.256 181.511 44.7404 191.568 65.8621 198.149C71.0772 190.971 75.7284 183.341 79.7352 175.3C72.104 172.401 64.795 168.822 57.8888 164.668C59.721 163.311 61.5131 161.891 63.2446 160.431C105.367 180.133 151.135 180.133 192.755 160.431C194.506 161.891 196.298 163.311 198.11 164.668C191.184 168.843 183.855 172.421 176.224 175.321C180.23 183.341 184.862 190.992 190.097 198.169C211.239 191.588 232.743 181.532 254.912 164.956C260.228 108.668 245.831 59.8662 216.856 16.5966ZM85.4739 135.095C72.829 135.095 62.4592 123.29 62.4592 108.915C62.4592 94.54 72.6076 82.715 85.4739 82.715C98.3405 82.715 108.71 94.519 108.489 108.915C108.509 123.29 98.3405 135.095 85.4739 135.095ZM170.525 135.095C157.88 135.095 147.511 123.29 147.511 108.915C147.511 94.54 157.659 82.715 170.525 82.715C183.392 82.715 193.761 94.519 193.54 108.915C193.54 123.29 183.392 135.095 170.525 135.095Z" fill="white"/>
</svg>
