<svg width="563" height="717" viewBox="0 0 563 717" fill="none" xmlns="http://www.w3.org/2000/svg">
<path d="M199.533 129.36V0.933319C147.268 53.1987 56.1733 142.8 0.919922 199.547H130.841C168.169 199.547 199.529 168.187 199.529 129.359L199.533 129.36Z" fill="white"/>
<path fill-rule="evenodd" clip-rule="evenodd" d="M493.8 1.00133L242 1V138.5C242 184.792 185.792 243.5 139.5 243.5H1V647.613C1 686.441 32.36 716.307 69.6934 716.307H493.8C532.628 716.307 562.493 684.947 562.493 647.613V69.6933C562.493 32.36 532.629 1 493.8 1V1.00133ZM258.26 320.164C258.26 314.405 256.016 309.001 251.931 304.916C244.028 297.047 229.35 297.036 221.48 304.927L149.307 377.112C145.299 381.119 143 386.667 143 392.336C143 398.006 145.299 403.554 149.307 407.562L221.503 479.759C225.566 483.811 230.969 486.043 236.717 486.043C242.443 486.043 247.834 483.811 251.93 479.737C256.004 475.674 258.248 470.261 258.248 464.511C258.248 458.763 256.004 453.349 251.93 449.285L194.993 392.336L251.918 335.398C256.005 331.346 258.259 325.933 258.259 320.161L258.26 320.164ZM342.522 304.916L414.707 377.113V377.117C418.715 381.124 421.003 386.672 421 392.34C421 398.01 418.701 403.558 414.693 407.565L342.509 479.75C338.424 483.814 333.021 486.046 327.295 486.046C321.57 486.046 316.156 483.814 312.082 479.761C307.997 475.665 305.764 470.251 305.764 464.514C305.764 458.776 307.997 453.363 312.06 449.3L369.022 392.339L312.06 335.377C308.008 331.325 305.764 325.923 305.764 320.152C305.764 314.414 307.997 309.001 312.06 304.938C319.997 297.014 334.63 297.035 342.522 304.916Z" fill="white"/>
</svg>
