<svg width="172" height="140" viewBox="0 0 172 140" fill="none" xmlns="http://www.w3.org/2000/svg">
<path d="M171.505 16.4988C165.196 19.2978 158.414 21.1887 151.297 22.0393C158.561 17.6848 164.141 10.7894 166.768 2.5726C159.968 6.60555 152.438 9.53313 144.423 11.111C138.005 4.2722 128.861 0 118.74 0C99.3084 0 83.553 15.7536 83.553 35.1852C83.553 37.9431 83.8643 40.6288 84.4646 43.204C55.2211 41.7368 29.2946 27.7282 11.9399 6.44003C8.91115 11.6367 7.17551 17.6805 7.17551 24.1292C7.17551 36.3369 13.3874 47.1066 22.8288 53.4163C17.0611 53.2336 11.6355 51.6507 6.89166 49.0155C6.88766 49.1621 6.88766 49.3096 6.88766 49.4579C6.88766 66.5056 19.0166 80.726 35.1132 83.9606C32.1608 84.765 29.0522 85.1946 25.8433 85.1946C23.576 85.1946 21.3722 84.9733 19.2232 84.5634C23.7012 98.542 36.6954 108.715 52.0931 108.998C40.0509 118.436 24.8795 124.061 8.39349 124.061C5.55335 124.061 2.75267 123.894 0 123.569C15.5719 133.553 34.067 139.378 53.9377 139.378C118.658 139.378 154.051 85.7631 154.051 39.2645C154.051 37.739 154.016 36.222 153.949 34.7119C160.823 29.7519 166.788 23.5554 171.505 16.4988Z" fill="white"/>
</svg>
